<svg width="313" height="321" viewBox="0 0 313 321" fill="none" xmlns="http://www.w3.org/2000/svg">
<path d="M291.29 137.499C291.29 137.499 245.491 25.7564 161.765 4.20937C78.0382 -17.3377 42.9232 48.5772 30.0923 94.3763C17.2614 140.175 -30.019 200.68 -25.7254 242.286C-21.6464 281.831 13.0107 300.53 45.3777 308.559C86.5182 318.756 133.269 319.529 174.56 311.028C184.378 308.952 194.07 306.324 203.592 303.156C222.992 296.83 242.035 291.928 261.685 286.697C299.069 276.728 313.882 236.604 309.667 198.147C307.291 176.528 299.369 157.178 291.29 137.499Z" fill="#E3E9E9"/>
<path opacity="0.7" d="M291.29 137.499C291.29 137.499 245.491 25.7564 161.765 4.20937C78.0382 -17.3377 42.9232 48.5772 30.0923 94.3763C17.2614 140.175 -30.019 200.68 -25.7254 242.286C-21.6464 281.831 13.0107 300.53 45.3777 308.559C86.5182 318.756 133.269 319.529 174.56 311.028C184.378 308.952 194.07 306.324 203.592 303.156C222.992 296.83 242.035 291.928 261.685 286.697C299.069 276.728 313.882 236.604 309.667 198.147C307.291 176.528 299.369 157.178 291.29 137.499Z" fill="#E3E9E9"/>
<path d="M266.065 15.1725H133.319V198.97H266.065V15.1725Z" stroke="#313131" stroke-linecap="round" stroke-linejoin="round"/>
<path d="M199.692 15.2798V199.614" stroke="#313131" stroke-linecap="round" stroke-linejoin="round"/>
<path d="M266.179 107.45H133.212" stroke="#313131" stroke-linecap="round" stroke-linejoin="round"/>
<path d="M266.179 61.2936H133.212" stroke="#313131" stroke-linecap="round" stroke-linejoin="round"/>
<path d="M266.179 153.607H133.212" stroke="#313131" stroke-linecap="round" stroke-linejoin="round"/>
<path d="M241.985 82.5973L229.046 95.0346" stroke="#313131" stroke-linecap="round" stroke-linejoin="round"/>
<path d="M261.227 64.0917L245.77 78.9549" stroke="#313131" stroke-linecap="round" stroke-linejoin="round"/>
<path d="M228.109 89.1094L224.001 93.0595" stroke="#313131" stroke-linecap="round" stroke-linejoin="round"/>
<path d="M245.756 72.135L230.936 86.3828" stroke="#313131" stroke-linecap="round" stroke-linejoin="round"/>
<path d="M170.195 40.5122L157.256 52.9495" stroke="#313131" stroke-linecap="round" stroke-linejoin="round"/>
<path d="M189.437 22.0066L173.98 36.877" stroke="#313131" stroke-linecap="round" stroke-linejoin="round"/>
<path d="M156.319 47.0243L152.211 50.9745" stroke="#313131" stroke-linecap="round" stroke-linejoin="round"/>
<path d="M173.966 30.0571L159.146 44.2978" stroke="#313131" stroke-linecap="round" stroke-linejoin="round"/>
<path d="M238.886 131.488L225.955 143.925" stroke="#313131" stroke-linecap="round" stroke-linejoin="round"/>
<path d="M258.136 112.982L242.672 127.853" stroke="#313131" stroke-linecap="round" stroke-linejoin="round"/>
<path d="M225.01 138L220.903 141.95" stroke="#313131" stroke-linecap="round" stroke-linejoin="round"/>
<path d="M242.664 121.033L227.844 135.273" stroke="#313131" stroke-linecap="round" stroke-linejoin="round"/>
<path d="M244.725 181.652L244.167 176.872C244.167 176.872 241.627 177.015 240.646 174.804C240.052 173.466 239.451 170.753 240.324 169.415C240.579 168.997 240.95 168.662 241.392 168.452C241.833 168.241 242.327 168.164 242.812 168.229C243.297 168.294 243.752 168.499 244.123 168.819C244.493 169.139 244.762 169.56 244.897 170.031C245.577 171.97 245.913 172.8 245.913 172.8C245.749 169.988 243.631 158.66 250.007 160.384C252.597 161.1 253.306 163.59 253.42 165.565C253.535 167.54 253.27 172.657 253.27 172.657C253.27 172.657 254.98 172.843 255.095 170.002C255.209 167.161 257.957 165.873 259.181 167.218C260.404 168.564 260.955 173.344 259.624 174.84C258.293 176.335 254.078 176.858 254.078 176.858L254.358 181.659L244.725 181.652Z" fill="#E3E9E9" stroke="#313131" stroke-linecap="round" stroke-linejoin="round"/>
<path d="M248.389 161.171C248.389 161.171 247.337 162.13 247.624 165.393C247.91 168.657 247.91 174.496 247.91 174.496" stroke="#313131" stroke-width="0.5" stroke-linecap="round" stroke-linejoin="round"/>
<path d="M251.173 163.376C251.173 163.376 252.418 163.19 252.032 166.159C251.824 168.645 251.824 171.144 252.032 173.63" stroke="#313131" stroke-width="0.5" stroke-linecap="round" stroke-linejoin="round"/>
<path d="M242.156 169.701C242.156 169.701 240.911 169.988 241.491 172.006C242.071 174.024 242.257 175.548 243.595 175.841C244.194 175.99 244.804 176.086 245.42 176.128L245.613 178.232" stroke="#313131" stroke-width="0.5" stroke-linecap="round" stroke-linejoin="round"/>
<path d="M254.236 175.741C254.236 175.741 258.165 175.842 258.93 174.21C259.696 172.578 259.224 169.802 259.224 169.802" stroke="#313131" stroke-width="0.5" stroke-linecap="round" stroke-linejoin="round"/>
<path d="M243.788 170.231C243.788 170.298 243.768 170.363 243.731 170.418C243.694 170.473 243.642 170.516 243.58 170.542C243.519 170.567 243.451 170.574 243.386 170.561C243.321 170.548 243.261 170.516 243.214 170.469C243.167 170.422 243.135 170.362 243.122 170.297C243.109 170.231 243.115 170.164 243.141 170.102C243.166 170.041 243.209 169.988 243.265 169.951C243.32 169.915 243.385 169.895 243.452 169.895C243.496 169.895 243.54 169.903 243.58 169.92C243.621 169.937 243.658 169.962 243.689 169.993C243.721 170.025 243.745 170.062 243.762 170.102C243.779 170.143 243.788 170.187 243.788 170.231V170.231Z" stroke="#313131" stroke-width="0.5" stroke-linecap="round" stroke-linejoin="round"/>
<path d="M244.604 174.446C244.79 174.446 244.94 174.296 244.94 174.11C244.94 173.924 244.79 173.773 244.604 173.773C244.418 173.773 244.267 173.924 244.267 174.11C244.267 174.296 244.418 174.446 244.604 174.446Z" stroke="#313131" stroke-width="0.5" stroke-linecap="round" stroke-linejoin="round"/>
<path d="M242.929 172.865C243.115 172.865 243.266 172.714 243.266 172.528C243.266 172.342 243.115 172.192 242.929 172.192C242.744 172.192 242.593 172.342 242.593 172.528C242.593 172.714 242.744 172.865 242.929 172.865Z" stroke="#313131" stroke-width="0.5" stroke-linecap="round" stroke-linejoin="round"/>
<path d="M249.735 168.893C249.92 168.893 250.071 168.742 250.071 168.557C250.071 168.371 249.92 168.22 249.735 168.22C249.549 168.22 249.398 168.371 249.398 168.557C249.398 168.742 249.549 168.893 249.735 168.893Z" stroke="#313131" stroke-width="0.5" stroke-linecap="round" stroke-linejoin="round"/>
<path d="M246.572 165.63C246.757 165.63 246.908 165.479 246.908 165.293C246.908 165.108 246.757 164.957 246.572 164.957C246.386 164.957 246.235 165.108 246.235 165.293C246.235 165.479 246.386 165.63 246.572 165.63Z" stroke="#313131" stroke-width="0.5" stroke-linecap="round" stroke-linejoin="round"/>
<path d="M251.173 176.986C251.173 177.053 251.153 177.118 251.116 177.173C251.079 177.229 251.027 177.272 250.965 177.297C250.904 177.323 250.836 177.329 250.771 177.316C250.706 177.303 250.646 177.271 250.599 177.224C250.552 177.177 250.52 177.117 250.507 177.052C250.494 176.987 250.501 176.919 250.526 176.858C250.551 176.796 250.595 176.744 250.65 176.707C250.705 176.67 250.77 176.65 250.837 176.65C250.926 176.65 251.011 176.686 251.075 176.749C251.138 176.812 251.173 176.897 251.173 176.986V176.986Z" stroke="#313131" stroke-width="0.5" stroke-linecap="round" stroke-linejoin="round"/>
<path d="M247.531 176.507C247.531 176.574 247.511 176.639 247.474 176.694C247.437 176.749 247.384 176.792 247.323 176.818C247.262 176.843 247.194 176.85 247.129 176.837C247.063 176.824 247.003 176.792 246.956 176.745C246.909 176.698 246.877 176.638 246.864 176.573C246.851 176.507 246.858 176.44 246.884 176.378C246.909 176.317 246.952 176.264 247.007 176.227C247.063 176.19 247.128 176.171 247.194 176.171C247.283 176.171 247.369 176.206 247.432 176.269C247.495 176.332 247.531 176.418 247.531 176.507V176.507Z" stroke="#313131" stroke-width="0.5" stroke-linecap="round" stroke-linejoin="round"/>
<path d="M250.307 162.567C250.493 162.567 250.644 162.416 250.644 162.231C250.644 162.045 250.493 161.894 250.307 161.894C250.121 161.894 249.971 162.045 249.971 162.231C249.971 162.416 250.121 162.567 250.307 162.567Z" stroke="#313131" stroke-width="0.5" stroke-linecap="round" stroke-linejoin="round"/>
<path d="M257.449 168.6C257.449 168.666 257.429 168.731 257.392 168.786C257.355 168.842 257.303 168.885 257.241 168.91C257.18 168.936 257.112 168.942 257.047 168.929C256.982 168.916 256.922 168.884 256.875 168.837C256.828 168.79 256.796 168.73 256.783 168.665C256.77 168.6 256.776 168.532 256.802 168.471C256.827 168.409 256.87 168.357 256.926 168.32C256.981 168.283 257.046 168.263 257.113 168.263C257.202 168.263 257.287 168.299 257.35 168.362C257.414 168.425 257.449 168.51 257.449 168.6V168.6Z" stroke="#313131" stroke-width="0.5" stroke-linecap="round" stroke-linejoin="round"/>
<path d="M256.247 173.494C256.432 173.494 256.583 173.344 256.583 173.158C256.583 172.972 256.432 172.822 256.247 172.822C256.061 172.822 255.91 172.972 255.91 173.158C255.91 173.344 256.061 173.494 256.247 173.494Z" stroke="#313131" stroke-width="0.5" stroke-linecap="round" stroke-linejoin="round"/>
<path d="M250.307 173.394C250.493 173.394 250.644 173.244 250.644 173.058C250.644 172.872 250.493 172.721 250.307 172.721C250.121 172.721 249.971 172.872 249.971 173.058C249.971 173.244 250.121 173.394 250.307 173.394Z" stroke="#313131" stroke-width="0.5" stroke-linecap="round" stroke-linejoin="round"/>
<path d="M257.943 178.553H240.697L242.421 192.694H256.218L257.943 178.553Z" fill="#E3E9E9" stroke="#313131" stroke-linecap="round" stroke-linejoin="round"/>
<path d="M1.21738 152.484L14.4204 278.954" stroke="#313131" stroke-width="2" stroke-miterlimit="10"/>
<path d="M12.2879 254.752L6.30539 248.433" stroke="#313131" stroke-width="2" stroke-miterlimit="10"/>
<path d="M8.12303 250.322C8.11386 249.357 7.89839 248.405 7.49109 247.53C7.0838 246.655 6.49409 245.877 5.76151 245.249C4.2301 243.875 -3.8563 240.476 -4.622 243.324C-5.48073 246.422 2.79889 252.505 8.12303 250.322Z" fill="#E3E9E9" stroke="#313131" stroke-miterlimit="10"/>
<path d="M8.12303 250.322L0.430206 245.528" stroke="#313131" stroke-width="0.5" stroke-miterlimit="10"/>
<path d="M13.7907 269.136L7.80817 262.817" stroke="#313131" stroke-width="2" stroke-miterlimit="10"/>
<path d="M9.6258 264.706C9.61397 263.739 9.39517 262.786 8.98412 261.911C8.57307 261.036 7.97932 260.259 7.24282 259.632C5.71141 258.258 -2.37499 254.859 -3.14069 257.707C-3.97796 260.806 4.33029 266.917 9.6258 264.706Z" fill="#E3E9E9" stroke="#313131" stroke-miterlimit="10"/>
<path d="M9.62583 264.706L1.93301 259.911" stroke="#313131" stroke-width="0.5" stroke-miterlimit="10"/>
<path d="M8.62396 219.651L2.64145 213.332" stroke="#313131" stroke-width="2" stroke-miterlimit="10"/>
<path d="M4.45911 215.229C4.44779 214.261 4.22997 213.308 3.82024 212.432C3.4105 211.555 2.8183 210.777 2.08329 210.148C0.544723 208.781 -7.54168 205.375 -8.30738 208.237C-9.13749 211.321 -0.865031 217.404 4.45911 215.229Z" fill="#E3E9E9" stroke="#313131" stroke-miterlimit="10"/>
<path d="M4.45911 215.229L-3.2337 210.434" stroke="#313131" stroke-width="0.5" stroke-miterlimit="10"/>
<path d="M10.1267 234.035L4.14423 227.716" stroke="#313131" stroke-width="2" stroke-miterlimit="10"/>
<path d="M5.96188 229.613C5.95014 228.645 5.73141 227.691 5.32039 226.814C4.90937 225.938 4.31558 225.16 3.5789 224.532C2.04749 223.165 -6.03891 219.766 -6.80462 222.607C-7.64188 225.705 0.63058 231.788 5.96188 229.613Z" fill="#E3E9E9" stroke="#313131" stroke-miterlimit="10"/>
<path d="M5.96189 229.612L-1.73093 224.818" stroke="#313131" stroke-width="0.5" stroke-miterlimit="10"/>
<path d="M6.19088 196.286L0.208374 189.968" stroke="#313131" stroke-width="2" stroke-miterlimit="10"/>
<path d="M2.02602 191.864C2.01244 190.896 1.79289 189.943 1.382 189.067C0.971104 188.191 0.378296 187.412 -0.356961 186.783C-1.89552 185.416 -9.97477 182.01 -10.7476 184.858C-11.5777 187.957 -3.30528 194.039 2.02602 191.864Z" fill="#E3E9E9" stroke="#313131" stroke-miterlimit="10"/>
<path d="M2.02602 191.864L-5.67395 187.069" stroke="#313131" stroke-width="0.5" stroke-miterlimit="10"/>
<path d="M3.73635 172.822L-2.24615 166.503" stroke="#313131" stroke-width="2" stroke-miterlimit="10"/>
<path d="M-0.428527 168.392C-0.442595 167.424 -0.663832 166.47 -1.07735 165.595C-1.49087 164.72 -2.08707 163.944 -2.82582 163.318C-4.36438 161.944 -12.4508 158.545 -13.2165 161.393C-14.0251 164.492 -5.75267 170.567 -0.428527 168.392Z" fill="#E3E9E9" stroke="#313131" stroke-miterlimit="10"/>
<path d="M11.286 246.243L15.8373 238.822" stroke="#313131" stroke-width="2" stroke-miterlimit="10"/>
<path d="M14.449 241.048C14.2611 240.1 14.2781 239.123 14.4991 238.183C14.72 237.242 15.1397 236.36 15.73 235.595C16.9465 233.935 24.1527 228.94 25.4909 231.566C26.9507 234.421 20.1095 242.078 14.449 241.048Z" fill="#E3E9E9" stroke="#313131" stroke-miterlimit="10"/>
<path d="M14.449 241.048L21.3761 234.428" stroke="#313131" stroke-width="0.5" stroke-miterlimit="10"/>
<path d="M7.33585 208.387L11.8871 200.974" stroke="#313131" stroke-width="2" stroke-miterlimit="10"/>
<path d="M10.4989 203.228C10.3108 202.279 10.3278 201.301 10.5487 200.359C10.7696 199.418 11.1894 198.534 11.7798 197.768C12.9964 196.108 20.2026 191.113 21.5408 193.739C23.0006 196.573 16.1594 204.23 10.4989 203.228Z" fill="#E3E9E9" stroke="#313131" stroke-miterlimit="10"/>
<path d="M10.4989 203.199L17.426 196.573" stroke="#313131" stroke-width="0.5" stroke-miterlimit="10"/>
<path d="M5.59692 191.757L10.1482 184.336" stroke="#313131" stroke-width="2" stroke-miterlimit="10"/>
<path d="M8.75995 186.568C8.57384 185.619 8.59314 184.64 8.81655 183.698C9.03995 182.756 9.46229 181.873 10.0552 181.108C11.2789 179.448 18.4851 174.453 19.8233 177.079C21.2617 179.935 14.4204 187.592 8.75995 186.568Z" fill="#E3E9E9" stroke="#313131" stroke-miterlimit="10"/>
<path d="M8.75992 186.568L15.687 179.942" stroke="#313131" stroke-width="0.5" stroke-miterlimit="10"/>
<path d="M3.05652 167.369L7.60065 159.955" stroke="#313131" stroke-width="2" stroke-miterlimit="10"/>
<path d="M6.21236 162.181C6.02479 161.231 6.0427 160.253 6.26489 159.311C6.48707 158.369 6.90838 157.486 7.50046 156.72C8.717 155.06 15.9232 150.065 17.2614 152.692C18.7141 155.554 11.88 163.211 6.21236 162.181Z" fill="#E3E9E9" stroke="#313131" stroke-miterlimit="10"/>
<path d="M6.21234 162.181L13.1466 155.554" stroke="#313131" stroke-width="0.5" stroke-miterlimit="10"/>
<path d="M1.11005 151.783C0.921962 150.834 0.93895 149.856 1.15988 148.914C1.38081 147.972 1.80056 147.089 2.391 146.322C3.60754 144.662 10.8137 139.667 12.1519 142.294C13.6332 145.149 6.77053 152.806 1.11005 151.783Z" fill="#E3E9E9" stroke="#313131" stroke-miterlimit="10"/>
<path d="M1.11005 151.783L8.03716 145.156" stroke="#313131" stroke-width="0.5" stroke-miterlimit="10"/>
<path d="M1.51078 152.069C0.547081 152.154 -0.423715 152.033 -1.33686 151.713C-2.25001 151.394 -3.08452 150.883 -3.78474 150.215C-5.30899 148.834 -9.50962 141.141 -6.76883 140.082C-3.77043 138.937 3.12806 146.544 1.51078 152.069Z" fill="#E3E9E9" stroke="#313131" stroke-miterlimit="10"/>
<path d="M1.51079 152.069L-4.35007 144.483" stroke="#313131" stroke-width="0.5" stroke-miterlimit="10"/>
<path d="M36.0318 169.902L22.9075 296.379" stroke="#313131" stroke-width="2" stroke-miterlimit="10"/>
<path d="M25.8058 272.256L21.2545 264.842" stroke="#313131" stroke-width="2" stroke-miterlimit="10"/>
<path d="M22.6428 267.067C22.8303 266.118 22.8124 265.14 22.5902 264.198C22.3681 263.256 21.9468 262.373 21.3547 261.607C20.1381 259.954 12.9248 254.959 11.5937 257.586C10.1339 260.477 16.9823 268.098 22.6428 267.067Z" fill="#E3E9E9" stroke="#313131" stroke-miterlimit="10"/>
<path d="M22.6428 267.068L16.1021 260.792" stroke="#313131" stroke-width="0.5" stroke-miterlimit="10"/>
<path d="M29.4482 237.155L24.8969 229.741" stroke="#313131" stroke-width="2" stroke-miterlimit="10"/>
<path d="M26.2852 231.967C26.4728 231.018 26.4549 230.039 26.2327 229.097C26.0105 228.155 25.5892 227.272 24.9971 226.507C23.7806 224.854 16.5672 219.859 15.2362 222.485C13.7764 225.347 20.6247 232.997 26.2852 231.967Z" fill="#E3E9E9" stroke="#313131" stroke-miterlimit="10"/>
<path d="M26.2852 231.967L19.7445 225.691" stroke="#313131" stroke-width="0.5" stroke-miterlimit="10"/>
<path d="M27.9598 251.539L23.4013 244.125" stroke="#313131" stroke-width="2" stroke-miterlimit="10"/>
<path d="M24.7896 246.351C24.9776 245.403 24.9605 244.426 24.7396 243.485C24.5186 242.545 24.0989 241.663 23.5087 240.898C22.285 239.237 15.0788 234.242 13.7406 236.869C12.2879 239.724 19.1291 247.381 24.7896 246.351Z" fill="#E3E9E9" stroke="#313131" stroke-miterlimit="10"/>
<path d="M24.7896 246.351L18.2489 240.075" stroke="#313131" stroke-width="0.5" stroke-miterlimit="10"/>
<path d="M31.8742 213.79L27.3229 206.376" stroke="#313131" stroke-width="2" stroke-miterlimit="10"/>
<path d="M28.7111 208.602C28.8992 207.653 28.8815 206.674 28.6593 205.732C28.4371 204.79 28.0155 203.907 27.423 203.142C26.2065 201.482 18.9931 196.494 17.655 199.12C16.2023 201.976 23.0507 209.668 28.7111 208.602Z" fill="#E3E9E9" stroke="#313131" stroke-miterlimit="10"/>
<path d="M28.7112 208.602L22.1705 202.326" stroke="#313131" stroke-width="0.5" stroke-miterlimit="10"/>
<path d="M34.3072 190.318L29.756 182.905" stroke="#313131" stroke-width="2" stroke-miterlimit="10"/>
<path d="M31.1442 185.13C31.3322 184.182 31.3151 183.205 31.0942 182.265C30.8732 181.324 30.4535 180.442 29.8633 179.677C28.6396 178.017 21.4262 173.022 20.0952 175.655C18.6425 178.511 25.4837 186.168 31.1442 185.13Z" fill="#E3E9E9" stroke="#313131" stroke-miterlimit="10"/>
<path d="M31.1442 185.13L24.6035 178.854" stroke="#313131" stroke-width="0.5" stroke-miterlimit="10"/>
<path d="M26.5786 263.718L32.554 257.4" stroke="#313131" stroke-width="2" stroke-miterlimit="10"/>
<path d="M30.7363 259.296C30.7481 258.328 30.9668 257.374 31.3778 256.498C31.7888 255.621 32.3826 254.843 33.1193 254.215C34.6507 252.841 42.7371 249.442 43.5028 252.283C44.3401 255.382 36.0676 261.464 30.7363 259.296Z" fill="#E3E9E9" stroke="#313131" stroke-miterlimit="10"/>
<path d="M30.7363 259.296L38.8871 254.237" stroke="#313131" stroke-width="0.5" stroke-miterlimit="10"/>
<path d="M30.5073 225.87L36.4827 219.544" stroke="#313131" stroke-width="2" stroke-miterlimit="10"/>
<path d="M34.665 221.44C34.6764 220.473 34.895 219.52 35.3061 218.645C35.7172 217.77 36.3112 216.993 37.048 216.366C38.5794 214.993 46.6587 211.586 47.4315 214.434C48.2688 217.54 39.9963 223.616 34.665 221.44Z" fill="#E3E9E9" stroke="#313131" stroke-miterlimit="10"/>
<path d="M34.665 221.44L42.8087 216.388" stroke="#313131" stroke-width="0.5" stroke-miterlimit="10"/>
<path d="M32.232 209.232L38.2073 202.913" stroke="#313131" stroke-width="2" stroke-miterlimit="10"/>
<path d="M36.3968 204.802C36.4064 203.836 36.6234 202.883 37.0333 202.007C37.4432 201.132 38.0364 200.355 38.7726 199.729C40.3041 198.355 48.3905 194.948 49.1562 197.796C49.9934 200.895 41.721 206.978 36.3968 204.802Z" fill="#E3E9E9" stroke="#313131" stroke-miterlimit="10"/>
<path d="M36.3968 204.802L44.5405 199.75" stroke="#313131" stroke-width="0.5" stroke-miterlimit="10"/>
<path d="M34.7581 184.844L40.7406 178.525" stroke="#313131" stroke-width="2" stroke-miterlimit="10"/>
<path d="M38.9229 180.421C38.9347 179.454 39.1534 178.499 39.5644 177.623C39.9754 176.747 40.5692 175.969 41.3059 175.341C42.8373 173.967 50.9166 170.56 51.6894 173.408C52.5267 176.507 44.2542 182.59 38.9229 180.421Z" fill="#E3E9E9" stroke="#313131" stroke-miterlimit="10"/>
<path d="M38.9229 180.421L47.0666 175.362" stroke="#313131" stroke-width="0.5" stroke-miterlimit="10"/>
<path d="M36.0676 169.186C36.079 168.22 36.2969 167.268 36.7067 166.392C37.1165 165.517 37.7086 164.74 38.4435 164.113C39.982 162.739 48.0613 159.332 48.827 162.18C49.6642 165.301 41.3989 171.362 36.0676 169.186Z" fill="#E3E9E9" stroke="#313131" stroke-miterlimit="10"/>
<path d="M36.0676 169.186L44.2113 164.134" stroke="#313131" stroke-width="0.5" stroke-miterlimit="10"/>
<path d="M36.404 169.551C35.4432 169.438 34.5177 169.121 33.6895 168.622C32.8614 168.122 32.1497 167.451 31.6022 166.653C30.4 164.986 27.8596 156.592 30.7721 156.126C33.9351 155.618 39.1233 164.478 36.404 169.551Z" fill="#E3E9E9" stroke="#313131" stroke-miterlimit="10"/>
<path d="M36.404 169.551L32.232 160.921" stroke="#313131" stroke-width="0.5" stroke-miterlimit="10"/>
<path d="M20.9897 118.399V278.338" stroke="#313131" stroke-width="2" stroke-miterlimit="10"/>
<path d="M21.1185 254.294L15.823 247.381" stroke="#313131" stroke-width="2" stroke-miterlimit="10"/>
<path d="M17.4331 249.456C17.523 248.493 17.4054 247.522 17.0881 246.609C16.7709 245.695 16.2614 244.861 15.594 244.161C14.2057 242.636 6.52008 238.436 5.46098 241.169C4.33031 244.161 11.9086 251.066 17.4331 249.456Z" fill="#E3E9E9" stroke="#313131" stroke-miterlimit="10"/>
<path d="M17.4331 249.456L10.277 243.889" stroke="#313131" stroke-width="0.5" stroke-miterlimit="10"/>
<path d="M21.1185 224.231L15.823 217.325" stroke="#313131" stroke-width="2" stroke-miterlimit="10"/>
<path d="M17.4331 219.401C17.523 218.438 17.4054 217.467 17.0881 216.553C16.7709 215.64 16.2614 214.805 15.594 214.105C14.2057 212.581 6.52008 208.38 5.46098 211.107C4.33031 214.105 11.9086 221.011 17.4331 219.401Z" fill="#E3E9E9" stroke="#313131" stroke-miterlimit="10"/>
<path d="M17.4331 219.401L10.277 213.833" stroke="#313131" stroke-width="0.5" stroke-miterlimit="10"/>
<path d="M21.1185 188.944L15.823 182.039" stroke="#313131" stroke-width="2" stroke-miterlimit="10"/>
<path d="M17.4331 184.107C17.523 183.144 17.4054 182.173 17.0881 181.26C16.7709 180.346 16.2614 179.511 15.594 178.811C14.2057 177.287 6.52008 173.086 5.46098 175.82C4.33031 178.811 11.9086 185.717 17.4331 184.107Z" fill="#E3E9E9" stroke="#313131" stroke-miterlimit="10"/>
<path d="M17.4331 184.107L10.277 178.539" stroke="#313131" stroke-width="0.5" stroke-miterlimit="10"/>
<path d="M21.1185 165.451L15.823 158.545" stroke="#313131" stroke-width="2" stroke-miterlimit="10"/>
<path d="M17.4331 160.613C17.5234 159.651 17.4059 158.681 17.0886 157.769C16.7713 156.857 16.2616 156.023 15.594 155.325C14.2057 153.801 6.52008 149.6 5.46098 152.326C4.33031 155.325 11.9086 162.23 17.4331 160.613Z" fill="#E3E9E9" stroke="#313131" stroke-miterlimit="10"/>
<path d="M17.4331 160.613L10.277 155.046" stroke="#313131" stroke-width="0.5" stroke-miterlimit="10"/>
<path d="M21.1185 141.857L15.823 134.951" stroke="#313131" stroke-width="2" stroke-miterlimit="10"/>
<path d="M17.4331 137.019C17.523 136.057 17.4054 135.086 17.0881 134.172C16.7709 133.259 16.2614 132.424 15.594 131.724C14.2057 130.2 6.52008 125.999 5.46098 128.733C4.33031 131.724 11.9086 138.637 17.4331 137.019Z" fill="#E3E9E9" stroke="#313131" stroke-miterlimit="10"/>
<path d="M17.4331 137.02L10.277 131.452" stroke="#313131" stroke-width="0.5" stroke-miterlimit="10"/>
<path d="M21.004 263.468L26.2995 256.562" stroke="#313131" stroke-width="2" stroke-miterlimit="10"/>
<path d="M24.6823 258.63C24.5893 257.666 24.7048 256.692 25.0209 255.776C25.3369 254.86 25.8462 254.023 26.5142 253.321C27.8954 251.796 35.581 247.596 36.6401 250.322C37.8066 253.321 30.2068 260.248 24.6823 258.63Z" fill="#E3E9E9" stroke="#313131" stroke-miterlimit="10"/>
<path d="M24.6823 258.63L32.2606 252.77" stroke="#313131" stroke-width="0.5" stroke-miterlimit="10"/>
<path d="M21.004 215.665L26.2995 208.76" stroke="#313131" stroke-width="2" stroke-miterlimit="10"/>
<path d="M24.6823 210.828C24.5947 209.864 24.7142 208.893 25.0326 207.98C25.351 207.067 25.8611 206.232 26.5285 205.532C27.9097 204.008 35.5953 199.807 36.6544 202.541C37.8066 205.532 30.2068 212.438 24.6823 210.828Z" fill="#E3E9E9" stroke="#313131" stroke-miterlimit="10"/>
<path d="M24.6823 210.828L32.2606 204.96" stroke="#313131" stroke-width="0.5" stroke-miterlimit="10"/>
<path d="M21.004 192.071L26.2995 185.166" stroke="#313131" stroke-width="2" stroke-miterlimit="10"/>
<path d="M24.6823 187.234C24.5947 186.271 24.7142 185.3 25.0326 184.387C25.351 183.473 25.8611 182.639 26.5285 181.939C27.9097 180.414 35.5953 176.214 36.6544 178.947C37.8066 181.939 30.2068 188.844 24.6823 187.234Z" fill="#E3E9E9" stroke="#313131" stroke-miterlimit="10"/>
<path d="M24.6823 187.234L32.2606 181.366" stroke="#313131" stroke-width="0.5" stroke-miterlimit="10"/>
<path d="M21.004 160.885L26.2995 153.979" stroke="#313131" stroke-width="2" stroke-miterlimit="10"/>
<path d="M24.6823 156.048C24.5947 155.084 24.7142 154.113 25.0326 153.2C25.351 152.287 25.8611 151.452 26.5285 150.752C27.9097 149.228 35.5953 145.027 36.6544 147.761C37.8066 150.752 30.2068 157.658 24.6823 156.048Z" fill="#E3E9E9" stroke="#313131" stroke-miterlimit="10"/>
<path d="M24.6823 156.048L32.2606 150.18" stroke="#313131" stroke-width="0.5" stroke-miterlimit="10"/>
<path d="M21.004 136.368L26.2995 129.456" stroke="#313131" stroke-width="2" stroke-miterlimit="10"/>
<path d="M24.6823 131.531C24.5947 130.568 24.7142 129.597 25.0326 128.683C25.351 127.77 25.8611 126.935 26.5285 126.235C27.9097 124.711 35.5953 120.511 36.6544 123.244C37.8066 126.235 30.2068 133.141 24.6823 131.531Z" fill="#E3E9E9" stroke="#313131" stroke-miterlimit="10"/>
<path d="M24.6823 131.531L32.2606 125.663" stroke="#313131" stroke-width="0.5" stroke-miterlimit="10"/>
<path d="M20.682 120.654C20.5944 119.69 20.7139 118.719 21.0323 117.806C21.3507 116.893 21.8608 116.058 22.5283 115.358C23.9094 113.841 31.5951 109.633 32.6542 112.367C33.8063 115.358 26.2065 122.271 20.682 120.654Z" fill="#E3E9E9" stroke="#313131" stroke-miterlimit="10"/>
<path d="M20.682 120.654L28.2603 114.786" stroke="#313131" stroke-width="0.5" stroke-miterlimit="10"/>
<path d="M21.0541 120.983C20.0866 120.971 19.1329 120.751 18.2575 120.339C17.3822 119.927 16.6056 119.331 15.9804 118.593C14.6136 117.061 11.2216 108.975 14.0698 108.209C17.1612 107.379 23.2367 115.659 21.0541 120.983Z" fill="#E3E9E9" stroke="#313131" stroke-miterlimit="10"/>
<path d="M21.0541 120.983L16.0162 112.832" stroke="#313131" stroke-width="0.5" stroke-miterlimit="10"/>
<path d="M27.5733 319.822H10.6348L8.5166 277.043H29.6915L27.5733 319.822Z" fill="#313131" stroke="#313131" stroke-miterlimit="10"/>
<path d="M180.621 145.979H232.846L220.681 190.791H168.456L180.621 145.979Z" fill="#E3E9E9" stroke="#313131" stroke-linecap="round" stroke-linejoin="round"/>
<path d="M182.109 147.646H230.449L219.192 189.123H170.853L182.109 147.646Z" fill="#E3E9E9" stroke="#313131" stroke-linecap="round" stroke-linejoin="round"/>
<path d="M193.817 176.185L196.722 165.336H197.932L195.327 175.09H198.425L198.132 176.185H193.817Z" fill="#313131"/>
<path d="M201.159 167.955C201.603 166.295 202.712 165.229 204.365 165.229C206.018 165.229 206.576 166.295 206.133 167.955L204.63 173.566C204.193 175.212 203.077 176.3 201.402 176.3C199.728 176.3 199.213 175.212 199.656 173.566L201.159 167.955ZM200.83 173.63C200.565 174.625 200.83 175.197 201.703 175.197C202.576 175.197 203.134 174.625 203.406 173.63L204.937 167.905C205.202 166.925 204.937 166.338 204.072 166.338C203.206 166.338 202.64 166.925 202.368 167.905L200.83 173.63Z" fill="#313131"/>
<path d="M212.072 167.955L211.857 168.879H210.712L210.977 167.891C211.242 166.911 210.977 166.324 210.126 166.324C209.274 166.324 208.694 166.911 208.437 167.891L206.898 173.616C206.641 174.589 206.898 175.183 207.75 175.183C208.601 175.183 209.181 174.589 209.439 173.616L210.025 171.469H208.909L209.195 170.381H211.464L210.605 173.573C210.169 175.219 209.102 176.307 207.428 176.307C205.753 176.307 205.281 175.219 205.725 173.573L207.227 167.963C207.664 166.324 208.73 165.236 210.39 165.236C212.051 165.236 212.509 166.317 212.072 167.955Z" fill="#313131"/>
<path d="M213.131 167.955C213.575 166.295 214.677 165.229 216.337 165.229C217.997 165.229 218.548 166.295 218.105 167.955L216.602 173.566C216.165 175.212 215.049 176.3 213.375 176.3C211.7 176.3 211.185 175.212 211.628 173.566L213.131 167.955ZM212.802 173.63C212.537 174.625 212.802 175.197 213.675 175.197C214.548 175.197 215.106 174.625 215.378 173.63L216.91 167.905C217.174 166.925 216.91 166.338 216.044 166.338C215.178 166.338 214.613 166.925 214.341 167.905L212.802 173.63Z" fill="#313131"/>
<path d="M195.134 165.93C195.041 163.461 194.468 158.91 191.77 155.389C187.87 150.308 180.8 157.221 183.777 165.866C184.17 166.978 184.74 168.02 185.466 168.95" stroke="#313131" stroke-linecap="round" stroke-linejoin="round"/>
<path d="M188.278 171.677C188.278 171.677 177.959 173.244 180.134 177.03C183.891 183.592 190.153 177.566 192.779 174.496" stroke="#313131" stroke-linecap="round" stroke-linejoin="round"/>
<path d="M192.951 162.639C194.11 165.751 193.867 168.714 192.407 169.258C190.947 169.802 188.829 167.719 187.655 164.606C186.482 161.494 186.747 158.524 188.207 157.98C189.666 157.436 191.82 159.526 192.951 162.639Z" fill="#E3E9E9" stroke="#313131" stroke-linecap="round" stroke-linejoin="round"/>
<path d="M182.567 177.208C182.925 178.16 184.757 178.346 186.661 177.623C188.564 176.901 189.809 175.548 189.452 174.596C189.094 173.645 187.255 173.459 185.358 174.181C183.462 174.904 182.203 176.257 182.567 177.208Z" fill="#E3E9E9" stroke="#313131" stroke-linecap="round" stroke-linejoin="round"/>
<path d="M198.261 157.157C198.831 158.82 198.976 160.6 198.682 162.334C198.389 164.067 197.666 165.7 196.579 167.083C196.904 164.425 196.6 161.729 195.692 159.211" stroke="#313131" stroke-linecap="round" stroke-linejoin="round"/>
<path d="M220.681 188.415H147.46V190.798H220.681V188.415Z" fill="#E3E9E9" stroke="#313131" stroke-linecap="round" stroke-linejoin="round"/>
<path d="M220.681 188.415H187.033V190.798H220.681V188.415Z" fill="#E3E9E9" stroke="#313131" stroke-linecap="round" stroke-linejoin="round"/>
<path d="M127.974 194.59H124.038V319.543H127.974V194.59Z" fill="#E3E9E9" stroke="#313131" stroke-linecap="round" stroke-linejoin="round"/>
<path d="M120.674 319.543H124.038L124.038 194.59H120.674L120.674 319.543Z" fill="#E3E9E9" stroke="#313131" stroke-linecap="round" stroke-linejoin="round"/>
<path d="M228.803 259.969H224.867V319.543H228.803V259.969Z" fill="#E3E9E9" stroke="#313131" stroke-linecap="round" stroke-linejoin="round"/>
<path d="M221.504 319.55H224.867V259.976H221.504V319.55Z" fill="#E3E9E9" stroke="#313131" stroke-linecap="round" stroke-linejoin="round"/>
<path d="M270.945 259.969H267.01V319.543H270.945V259.969Z" fill="#E3E9E9" stroke="#313131" stroke-linecap="round" stroke-linejoin="round"/>
<path d="M263.646 319.55H267.01V259.976H263.646V319.55Z" fill="#E3E9E9" stroke="#313131" stroke-linecap="round" stroke-linejoin="round"/>
<path d="M185.852 263.368H224.252V195.8H185.852V263.368Z" fill="#E3E9E9" stroke="#313131" stroke-linecap="round" stroke-linejoin="round"/>
<path d="M274.853 195.807H224.252V263.375H274.853V195.807Z" fill="#E3E9E9" stroke="#313131" stroke-linecap="round" stroke-linejoin="round"/>
<path d="M224.252 195.807H185.859V199.099H224.252H274.853V195.807H224.252Z" fill="#313131" stroke="#313131" stroke-linecap="round" stroke-linejoin="round"/>
<path d="M221.869 199.678H189.13V215.451H221.869V199.678Z" fill="#E3E9E9" stroke="#313131" stroke-linecap="round" stroke-linejoin="round"/>
<path d="M209.818 206.076H201.188V209.053H209.818V206.076Z" fill="#313131"/>
<path d="M221.869 221.404H189.13V237.176H221.869V221.404Z" fill="#E3E9E9" stroke="#313131" stroke-linecap="round" stroke-linejoin="round"/>
<path d="M209.818 227.509H201.188V230.485H209.818V227.509Z" fill="#313131"/>
<path d="M221.869 243.13H189.13V258.902H221.869V243.13Z" fill="#E3E9E9" stroke="#313131" stroke-linecap="round" stroke-linejoin="round"/>
<path d="M209.818 248.934H201.188V251.911H209.818V248.934Z" fill="#313131"/>
<path d="M280.077 192.837H115.25V196.766H280.077V192.837Z" fill="#E3E9E9" stroke="#313131" stroke-linecap="round" stroke-linejoin="round"/>
<path d="M280.077 192.837H230.306V196.766H280.077V192.837Z" fill="#E3E9E9" stroke="#313131" stroke-linecap="round" stroke-linejoin="round"/>
<path d="M129.226 232.825C129.226 232.825 134.135 236.225 141.391 257.235C143.81 264.219 157.414 301.882 158.129 304.465C158.845 307.049 160.276 310.19 162.423 310.19C164.57 310.19 172.442 300.172 171.483 298.984C170.524 297.796 166.001 293.016 166.001 293.016C166.001 293.016 163.296 262.531 162.817 253.943C162.337 245.356 164.291 235.015 159.761 228.095C155.231 221.175 135.187 228.331 135.187 228.331L129.226 232.825Z" fill="#E3E9E9" stroke="#313131" stroke-linecap="round" stroke-linejoin="round"/>
<path d="M168.205 293.051C167.652 293.348 167.199 293.8 166.901 294.352C166.603 294.905 166.474 295.532 166.531 296.157C166.774 298.304 168.921 301.166 168.921 301.166C168.921 301.166 164.384 304.744 162.001 304.981C159.618 305.217 156.992 305.696 156.992 306.412C156.992 307.127 158.902 308.322 160.09 310.942C161.406 313.599 162.923 316.151 164.627 318.577C165.343 319.529 165.815 320.244 168.441 319.529C171.068 318.813 176.792 313.568 179.891 311.421C182.99 309.274 192.293 307.843 193.967 306.648C195.642 305.453 200.88 297.824 198.497 296.393C196.114 294.962 195.398 296.629 192.536 297.345C189.674 298.061 181.322 297.109 176.793 296.157C172.263 295.205 170.824 294.962 170.824 294.962L168.205 293.051Z" fill="#E3E9E9" stroke="#313131" stroke-linecap="round" stroke-linejoin="round"/>
<path d="M164.212 318.033C164.369 318.262 164.498 318.448 164.598 318.577C165.314 319.529 165.786 320.245 168.413 319.529C171.039 318.813 176.764 313.568 179.862 311.421C182.961 309.274 192.264 307.843 193.938 306.648C195.613 305.453 200.851 297.824 198.468 296.393C198.133 296.183 197.769 296.024 197.388 295.921C197.431 296.078 197.474 296.221 197.517 296.393C198.232 299.256 195.842 302.118 193.695 304.265C191.548 306.412 184.392 305.932 176.521 309.99C172.171 312.273 168.049 314.966 164.212 318.033Z" fill="#E3E9E9" stroke="#313131" stroke-linecap="round" stroke-linejoin="round"/>
<path d="M163.983 269.186C163.468 262.91 163.017 257.02 162.845 253.979C162.366 245.392 164.319 235.051 159.79 228.131C155.26 221.211 135.215 228.367 135.215 228.367L129.226 232.826C129.226 232.826 134.135 236.225 141.391 257.235C142.314 259.904 144.876 267.068 147.732 275.032L163.983 269.186Z" fill="#313131" stroke="#313131" stroke-linecap="round" stroke-linejoin="round"/>
<path d="M152.304 110.47C152.923 112.128 153.217 113.89 153.17 115.659C152.955 118.042 150.787 119.122 150.573 118.478C150.387 117.406 150.315 116.317 150.358 115.229V114.363C149.823 115.244 149.168 116.046 148.411 116.746C146.894 118.256 146.028 117.827 145.377 117.827C144.726 117.827 144.511 115.68 145.599 114.149C146.687 112.617 150.143 109.168 152.304 110.47Z" fill="#E3E9E9" stroke="#313131" stroke-linecap="round" stroke-linejoin="round"/>
<path d="M157.285 116.095C155.138 114.793 151.875 119.344 146.894 118.242C146.257 118.106 146.028 117.161 147.109 115C148.189 112.839 151.653 111.1 153.385 109.805C155.117 108.509 156.419 107.422 156.419 105.905C156.419 104.388 152.519 106.771 151.41 107.636C150.099 108.453 148.737 109.182 147.331 109.819L146.393 109.869C144.468 109.991 141.499 110.334 140.375 111.3C138.901 112.581 138.056 116.982 137.706 118.678C136.747 120.067 135.888 121.348 135.394 122.12C133.877 124.496 103.364 146.795 103.364 146.795L105.51 165.837L140.139 126.478C141.098 125.694 142.202 125.106 143.388 124.747C145.771 123.881 149.012 123.23 151.832 121.713C153.918 120.598 155.941 119.37 157.893 118.034C159.403 117.097 158.459 116.796 157.285 116.095Z" fill="#E3E9E9" stroke="#313131" stroke-linecap="round" stroke-linejoin="round"/>
<path d="M120.889 133.813C112.388 140.254 103.392 146.83 103.392 146.83L105.539 165.873L126.829 141.685L120.889 133.813Z" fill="#E3E9E9" stroke="#313131" stroke-linecap="round" stroke-linejoin="round"/>
<path d="M110.241 205.854C110.241 205.854 125.505 205.138 147.689 208.717C169.873 212.295 178.174 216.109 177.508 220.402C174.803 237.82 134.135 295.162 134.135 295.162L134.851 303.27C134.851 303.27 133.419 305.181 128.41 305.417C123.401 305.653 117.196 298.504 117.196 298.504C117.196 298.504 122.8 292.708 124.946 285.795C127.093 278.882 144.354 234.235 144.354 234.235C144.354 234.235 121.69 239.244 96.6441 234.715C71.5977 230.185 110.241 205.854 110.241 205.854Z" fill="#E3E9E9" stroke="#313131" stroke-linecap="round" stroke-linejoin="round"/>
<path d="M147.689 208.717C125.505 205.138 110.241 205.854 110.241 205.854C110.241 205.854 71.5977 230.185 96.6441 234.715C121.69 239.244 144.354 234.235 144.354 234.235C144.354 234.235 137.198 252.841 131.473 267.869L148.297 274.309C160.333 256.104 175.869 230.943 177.508 220.402C178.174 216.109 169.873 212.295 147.689 208.717Z" fill="#313131" stroke="#313131" stroke-linecap="round" stroke-linejoin="round"/>
<path d="M134.135 295.162C133.653 295.361 133.215 295.653 132.847 296.021C132.479 296.39 132.187 296.827 131.988 297.309C131.528 298.4 131.129 299.516 130.793 300.651C128.183 300.089 125.629 299.289 123.165 298.261C121.349 297.431 119.594 296.475 117.912 295.398C117.912 295.398 115.765 295.642 115.765 297.073C115.753 299.273 115.351 301.454 114.577 303.514C113.962 305.045 112.652 308.458 111.801 310.67C111.702 310.931 111.66 311.21 111.678 311.488C111.696 311.767 111.774 312.038 111.907 312.284C112.039 312.529 112.223 312.744 112.445 312.912C112.668 313.081 112.924 313.199 113.196 313.26C116.975 314.097 124.939 315.937 131.752 318.033C141.055 320.896 151.31 319.465 152.505 319.228C153.7 318.992 158.466 316.123 156.319 314.219C154.172 312.316 141.527 307.299 138.908 303.957C136.289 300.615 134.135 295.162 134.135 295.162Z" fill="#E3E9E9" stroke="#313131" stroke-linecap="round" stroke-linejoin="round"/>
<path d="M155.36 313.575C155.36 315.944 154.143 318.298 150.351 318.298C146.558 318.298 139.853 317.826 130.314 314.004C124.557 311.748 118.642 309.921 112.617 308.537C112.323 309.303 112.037 310.047 111.794 310.684C111.695 310.945 111.653 311.224 111.671 311.502C111.689 311.781 111.767 312.052 111.9 312.298C112.032 312.544 112.216 312.758 112.438 312.926C112.661 313.095 112.917 313.214 113.189 313.274C116.967 314.112 124.932 315.951 131.745 318.048C141.048 320.91 151.302 319.479 152.498 319.243C153.693 319.006 158.459 316.137 156.312 314.233C156.014 313.987 155.696 313.766 155.36 313.575Z" fill="#E3E9E9" stroke="#313131" stroke-linecap="round" stroke-linejoin="round"/>
<path d="M62.0515 150.273C62.0515 150.273 59.4538 170.839 59.6756 174.732C59.8975 178.625 62.7027 212.173 63.3539 219.536C64.0051 226.9 67.0321 233.384 72.4421 234.686C77.8522 235.988 91.9211 237.928 97.9823 236.418C104.044 234.908 110.534 221.268 112.695 216.073C114.856 210.878 116.381 207.629 115.729 206.548C115.078 205.468 112.266 203.085 112.266 203.085C112.266 203.085 106.856 163.726 105.553 153.521C104.251 143.317 104.909 142.487 100.143 138.587C95.3775 134.687 70.7104 131.459 62.0515 150.273Z" fill="#E3E9E9" stroke="#313131" stroke-linecap="round" stroke-linejoin="round"/>
<path d="M96.687 222.056C95.907 222.65 95.0912 223.215 94.2611 223.745" stroke="#313131" stroke-linecap="round" stroke-linejoin="round"/>
<path d="M110.956 204.659C110.956 204.659 106.362 213.676 98.7551 220.36" stroke="#313131" stroke-linecap="round" stroke-linejoin="round"/>
<path d="M107.614 205.138C107.614 205.138 100.222 212.051 92.8299 216.345" stroke="#313131" stroke-linecap="round" stroke-linejoin="round"/>
<path d="M113.561 85.5743C114.751 88.0744 115.696 90.6843 116.381 93.3673C117.025 96.6161 117.247 99.6432 118.756 100.294C120.266 100.946 123.05 101.16 122.657 102.892C122.263 104.624 119.408 107.436 119.408 107.436C119.408 107.436 120.059 117.827 119.837 119.773C119.615 121.72 108.151 121.72 107.507 121.72C106.863 121.72 100.351 137.091 100.351 137.091L82.1745 127.996L85.638 116.746C85.638 116.746 80.0133 105.919 79.5768 101.16C79.1403 96.4015 90.2036 87.7426 96.4652 85.7961C102.727 83.8497 113.561 85.5743 113.561 85.5743Z" fill="#E3E9E9" stroke="#313131" stroke-linecap="round" stroke-linejoin="round"/>
<path d="M107.507 121.72L101.732 120.074L103.893 128.525L107.507 121.72Z" fill="#313131" stroke="#313131" stroke-linecap="round" stroke-linejoin="round"/>
<path d="M115.708 97.8184C115.994 99.042 115.858 100.123 115.393 100.23C114.928 100.337 114.313 99.4428 114.019 98.2263C113.726 97.0097 113.869 95.922 114.334 95.8146C114.799 95.7073 115.415 96.6018 115.708 97.8184Z" fill="#313131"/>
<path d="M112.051 109.383C112.051 109.383 114.649 111.336 117.025 110.47" stroke="#313131" stroke-linecap="round" stroke-linejoin="round"/>
<path d="M112.481 81.4667C112.481 81.4667 115.515 86.8767 113.346 90.3402C111.178 93.8038 105.99 95.3137 103.178 98.5626C100.365 101.811 98.884 107.436 97.7676 107.866C96.6513 108.295 93.4739 101.804 91.4845 102.234C89.4951 102.663 86.2964 107.243 89.1087 111.973C89.8833 113.328 91.0275 114.434 92.4074 115.163C93.7874 115.891 95.3462 116.212 96.9017 116.088C96.9017 116.088 89.1087 120.203 87.5988 120.203C86.0888 120.203 81.5375 117.605 79.3764 115.193C77.2153 112.782 69.4509 105.704 68.9786 99.865C68.5063 94.0256 76.3351 86.662 76.3351 86.662C76.3351 86.662 67.0321 86.0108 69.4151 82.5472C71.7981 79.0837 80.2351 76.9225 80.2351 76.9225C80.2351 76.9225 78.718 71.5125 80.8863 70.4248C83.0546 69.3371 96.2505 73.7023 96.2505 73.7023C96.2505 73.7023 92.5723 68.9435 97.7676 68.693C102.963 68.4426 111.829 74.9689 112.481 81.4667Z" fill="#313131" stroke="#313131" stroke-linecap="round" stroke-linejoin="round"/>
<path d="M95.2558 104.967L122.871 93.8038" stroke="#313131" stroke-linecap="round" stroke-linejoin="round"/>
<path d="M115.672 92.2365C116.821 91.7384 118.118 91.7016 119.293 92.1339C120.468 92.5663 121.432 93.4344 121.985 94.5584C122.537 95.6823 122.635 96.9758 122.259 98.1704C121.884 99.3649 121.062 100.369 119.966 100.974" stroke="#313131" stroke-linecap="round" stroke-linejoin="round"/>
<path d="M105.553 143.116C105.553 143.116 105.339 136.841 103.607 135.109C101.875 133.377 89.1087 126.235 83.2622 124.725C77.4156 123.215 71.3616 125.369 67.4615 126.672C63.5614 127.974 60.9709 131.667 59.4323 139.689C57.8938 147.711 57.7005 152.67 60.9494 153.106C64.1983 153.543 68.7424 143.803 78.9113 141.85C89.0801 139.896 98.3902 141.635 100.558 142.716C102.727 143.796 105.553 143.116 105.553 143.116Z" fill="#E3E9E9" stroke="#313131" stroke-linecap="round" stroke-linejoin="round"/>
<path d="M72.6854 136.504C70.7318 137.22 69.4151 137.735 69.4151 137.735" stroke="#313131" stroke-linecap="round" stroke-linejoin="round"/>
<path d="M105.553 143.117C105.553 143.117 91.9568 135.545 86.9476 134.028C84.3499 133.241 79.6841 134.279 75.8198 135.46" stroke="#313131" stroke-linecap="round" stroke-linejoin="round"/>
<path d="M169.822 178.325C169.822 178.325 169.107 182.826 168.284 183.334C167.461 183.842 167.511 179.155 167.511 179.155C167.511 179.155 166.481 181.853 165.844 182.497C165.207 183.141 165.586 179.734 165.586 179.734L166.302 176.521L169.822 178.325Z" fill="#E3E9E9" stroke="#313131" stroke-linecap="round" stroke-linejoin="round"/>
<path d="M160.663 173.888L167.303 173.995C167.303 173.995 169.057 174.245 169.307 175.247C169.663 176.356 170.081 177.443 170.56 178.503L160.283 175.498L160.663 173.888Z" fill="#E3E9E9" stroke="#313131" stroke-linecap="round" stroke-linejoin="round"/>
<path d="M163.038 175.985C163.038 175.985 172.341 174.732 172.563 175.484C172.749 176.049 173.465 181.144 173.622 182.79C173.626 182.846 173.611 182.902 173.58 182.949C173.549 182.997 173.504 183.033 173.452 183.053C173.399 183.073 173.341 183.075 173.287 183.06C173.233 183.045 173.185 183.013 173.15 182.969L170.56 178.489L163.539 178.99C163.539 178.99 161.536 177.237 163.038 175.985Z" fill="#E3E9E9" stroke="#313131" stroke-linecap="round" stroke-linejoin="round"/>
<path d="M86.1318 147.925C86.1318 147.925 80.364 152.183 82.3677 162.71C84.3714 173.237 98.4045 202.069 99.6568 204.545C100.909 207.021 106.419 207.3 108.924 206.548C111.429 205.797 156.04 188.014 156.04 188.014C156.04 188.014 160.799 186.755 161.55 185.753C162.301 184.751 167.067 179.491 167.067 179.491C167.067 179.491 174.581 180.493 176.335 179.992C178.088 179.491 174.581 178.99 172.828 178.489C171.476 178.103 164.019 175.19 160.663 173.874C160.179 173.679 159.649 173.632 159.139 173.741C158.629 173.849 158.163 174.107 157.8 174.482C155.453 176.886 150.451 181.989 149.499 182.747C148.247 183.749 112.924 189.767 112.924 189.767C112.924 189.767 104.652 150.931 101.396 147.675C98.1397 144.419 92.3791 145.17 92.3791 145.17" fill="#E3E9E9"/>
<path d="M86.1318 147.925C86.1318 147.925 80.364 152.183 82.3677 162.71C84.3714 173.237 98.4045 202.069 99.6568 204.545C100.909 207.021 106.419 207.3 108.924 206.548C111.429 205.797 156.04 188.014 156.04 188.014C156.04 188.014 160.799 186.755 161.55 185.753C162.301 184.751 167.067 179.491 167.067 179.491C167.067 179.491 174.581 180.493 176.335 179.992C178.088 179.491 174.581 178.99 172.828 178.489C171.476 178.103 164.019 175.19 160.663 173.874C160.179 173.679 159.649 173.632 159.139 173.741C158.629 173.849 158.163 174.107 157.8 174.482C155.453 176.886 150.451 181.989 149.499 182.747C148.247 183.749 112.924 189.767 112.924 189.767C112.924 189.767 104.652 150.931 101.396 147.675C98.1397 144.419 92.3791 145.17 92.3791 145.17" stroke="#313131" stroke-linecap="round" stroke-linejoin="round"/>
<path d="M132.725 197.274C144.425 192.637 156.04 188.014 156.04 188.014C156.04 188.014 160.799 186.754 161.55 185.753C162.301 184.751 167.06 179.491 167.06 179.491C167.06 179.491 174.581 180.493 176.363 179.992C178.145 179.491 174.61 178.99 172.857 178.489C171.504 178.103 164.047 175.19 160.691 173.873C160.208 173.678 159.677 173.632 159.167 173.741C158.657 173.849 158.191 174.107 157.829 174.482C155.482 176.886 150.479 181.989 149.528 182.747C148.877 183.269 139.008 185.144 129.684 186.826L132.725 197.274Z" fill="#E3E9E9" stroke="#313131" stroke-linecap="round" stroke-linejoin="round"/>
<path d="M54.4231 246.58L43.51 319.1C43.4711 319.252 43.4945 319.414 43.575 319.55C43.6555 319.685 43.7866 319.783 43.9394 319.822C44.0921 319.861 44.2541 319.838 44.3897 319.757C44.5252 319.677 44.6232 319.546 44.6621 319.393L61.1212 247.775L54.4231 246.58Z" fill="#CAD7DC" stroke="#313131" stroke-linecap="round" stroke-linejoin="round"/>
<path d="M70.7104 247.059L75.4549 318.963C75.4549 319.121 75.5174 319.272 75.6288 319.383C75.7402 319.495 75.8913 319.557 76.0488 319.557C76.2063 319.557 76.3574 319.495 76.4688 319.383C76.5802 319.272 76.6428 319.121 76.6428 318.963L77.4657 246.479L70.7104 247.059Z" fill="#CAD7DC" stroke="#313131" stroke-linecap="round" stroke-linejoin="round"/>
<path d="M86.7186 248.14L99.7427 318.799C99.781 318.941 99.8703 319.063 99.9934 319.142C100.117 319.222 100.265 319.253 100.41 319.23C100.554 319.207 100.685 319.131 100.778 319.017C100.87 318.903 100.917 318.759 100.909 318.613L93.3237 246.601L86.7186 248.14Z" fill="#CAD7DC" stroke="#313131" stroke-linecap="round" stroke-linejoin="round"/>
<path d="M111.894 247.546L122.549 318.677C122.581 318.821 122.665 318.947 122.785 319.032C122.904 319.117 123.051 319.155 123.197 319.138C123.343 319.121 123.477 319.051 123.575 318.94C123.672 318.83 123.724 318.688 123.723 318.541L118.556 246.265L111.894 247.546Z" fill="#CAD7DC" stroke="#313131" stroke-linecap="round" stroke-linejoin="round"/>
<path d="M101.711 233.069C101.711 233.069 89.1803 228.89 83.3337 213.862C77.4872 198.834 67.8909 172.943 61.2071 169.594C54.5232 166.245 41.585 172.514 40.7477 196.73C39.9105 220.946 41.8713 238.951 47.267 244.905C52.0401 250.15 60.1479 256.834 88.2929 257.306C113.432 257.736 123.694 248.154 127.179 244.905C130.664 241.656 136.36 234.715 131.773 234.715C127.186 234.715 107.557 234.715 101.711 233.069Z" fill="#E3E9E9" stroke="#313131" stroke-linecap="round" stroke-linejoin="round"/>
<path d="M159.568 84.4366C159.568 84.4366 154.68 78.7117 147.889 77.6454C141.098 76.5792 140.64 86.4832 149.32 90.827C151.755 91.947 154.453 92.3682 157.113 92.0435C157.113 92.0435 150.179 100.237 154.666 101.547C164.684 104.495 162.538 89.0522 162.538 89.0522L159.568 84.4366Z" fill="#E3E9E9" stroke="#313131" stroke-linecap="round" stroke-linejoin="round"/>
<path d="M161.214 84.0429C161.214 84.0429 158.351 77.0943 160.498 70.5536C162.645 64.0129 171.153 68.4569 171.068 78.1677C171.035 80.6803 170.362 83.1431 169.114 85.3238C169.114 85.3238 180.034 82.9981 178.689 87.4707C175.633 97.6395 163.976 88.7945 163.976 88.7945L161.214 84.0429Z" fill="#E3E9E9" stroke="#313131" stroke-linecap="round" stroke-linejoin="round"/>
<path d="M165.006 92.7233C164.882 92.7233 164.76 92.6909 164.652 92.6294C164.544 92.568 164.454 92.4794 164.391 92.3726L157.6 80.9658C157.502 80.8034 157.473 80.6091 157.519 80.4253C157.565 80.2416 157.681 80.0834 157.843 79.9854C157.924 79.9364 158.014 79.9039 158.108 79.89C158.202 79.876 158.297 79.8809 158.389 79.9042C158.481 79.9275 158.567 79.9688 158.643 80.0257C158.719 80.0827 158.783 80.1541 158.831 80.2359L165.615 91.6427C165.712 91.8051 165.741 91.9994 165.696 92.1832C165.65 92.3669 165.533 92.5251 165.371 92.6231C165.26 92.6868 165.135 92.7213 165.006 92.7233Z" fill="#313131"/>
<path d="M158.759 81.9605C158.759 81.9605 156.312 76.8009 151.968 76.2356" stroke="#313131" stroke-linecap="round" stroke-linejoin="round"/>
<path d="M158.831 80.2359C158.831 80.2359 157.399 75.9852 158.487 73.2659" stroke="#313131" stroke-linecap="round" stroke-linejoin="round"/>
<path d="M154.501 85.059C154.244 86.3185 152.354 87.0055 150.308 86.5904C148.261 86.1754 146.78 84.8086 147.037 83.5491C147.295 82.2896 149.184 81.5955 151.231 82.0177C153.278 82.4399 154.759 83.7924 154.501 85.059Z" fill="#CAD7DC" stroke="#313131" stroke-linecap="round" stroke-linejoin="round"/>
<path d="M159.618 93.9326C160.333 94.4121 160.333 95.7574 159.525 96.9525C158.716 98.1476 157.471 98.7487 156.755 98.2334C156.04 97.7182 156.04 96.4086 156.848 95.2136C157.657 94.0185 158.852 93.4532 159.618 93.9326Z" fill="#CAD7DC" stroke="#313131" stroke-linecap="round" stroke-linejoin="round"/>
<path d="M174.495 87.9429C174.495 88.816 173.365 89.5387 171.941 89.5602C170.517 89.5817 169.357 88.8875 169.343 88.0145C169.329 87.1414 170.474 86.4187 171.898 86.3972C173.322 86.3757 174.481 87.077 174.495 87.9429Z" fill="#E3E9E9" stroke="#313131" stroke-linecap="round" stroke-linejoin="round"/>
<path d="M165.679 80.472C164.398 80.6151 163.167 79.0407 162.938 76.944C162.709 74.8473 163.561 73.0511 164.842 72.908C166.123 72.7648 167.346 74.3392 167.575 76.4359C167.804 78.5327 166.96 80.3288 165.679 80.472Z" fill="#CAD7DC" stroke="#313131" stroke-linecap="round" stroke-linejoin="round"/>
<path d="M-21.3243 319.822H312" stroke="#313131" stroke-linecap="round" stroke-linejoin="round"/>
</svg>
